Coordinates
version=1
nRows=13
nColumns=34
inDegrees=yes

Units are S.I. units (second, meters, Newtons, ...)
If the header above contains a line with 'inDegrees', this indicates whether rotational values are in degrees (yes) or radians (no).

endheader
time	pelvis_tilt	pelvis_list	pelvis_rotation	pelvis_tx	pelvis_ty	pelvis_tz	hip_flexion_r	hip_adduction_r	hip_rotation_r	knee_angle_r	ankle_angle_r	subtalar_angle_r	mtp_angle_r	hip_flexion_l	hip_adduction_l	hip_rotation_l	knee_angle_l	ankle_angle_l	subtalar_angle_l	mtp_angle_l	lumbar_extension	lumbar_bending	lumbar_rotation	arm_flex_r	arm_add_r	arm_rot_r	elbow_flex_r	pro_sup_r	arm_flex_l	arm_add_l	arm_rot_l	elbow_flex_l	pro_sup_l
      1.50000000	     -1.43762341	      0.53834538	     -5.62738080	      1.66273528	      0.87818355	     -0.03282226	     -1.82071216	     -5.45792546	      0.45381645	      0.00000000	      3.16428358	    -17.16179260	      0.00000000	     -3.32439409	     -2.59353869	      1.27059761	      0.00000000	      2.85509317	    -10.69823183	      0.00000000	     -5.93815033	      1.67659881	     -1.24222661	      9.51632448	     -9.98500988	     39.53329067	     83.28636916	     91.30070326	      7.74394454	     -7.82612200	     27.40617454	     71.33548878	     88.21497108
      1.51666670	     -1.50125584	      0.61118974	     -5.52808925	      1.66258864	      0.87812350	     -0.03267018	     -1.74322809	     -5.53567596	      0.32887519	      0.00000000	      3.15415152	    -17.17813418	      0.00000000	     -3.20475426	     -2.51358498	      1.17833041	      0.00000000	      2.83543382	    -10.72089038	      0.00000000	     -5.98011127	      1.67233027	     -1.22553736	      9.49176657	    -10.04206058	     39.45871645	     83.25965843	     91.27567729	      7.75911985	     -7.84972383	     27.42646470	     71.35238665	     88.20887245
      1.53333330	     -1.49260931	      0.62228721	     -5.53245910	      1.66252126	      0.87831054	     -0.03210653	     -1.73345782	     -5.52635829	      0.32120002	      0.00000000	      3.15351342	    -17.17850982	      0.00000000	     -3.19902763	     -2.51123940	      1.18013735	      0.00000000	      2.83192513	    -10.71827254	      0.00000000	     -5.97334122	      1.66819500	     -1.22616293	      9.49394721	    -10.04505032	     39.45186260	     83.26056621	     91.27377639	      7.76124734	     -7.84824875	     27.42900848	     71.35527530	     88.20847912
      1.55000000	     -1.48920044	      0.62424601	     -5.53247963	      1.66256374	      0.87805455	     -0.03201448	     -1.73256267	     -5.52407702	      0.32020278	      0.00000000	      3.15345389	    -17.17849317	      0.00000000	     -3.19608730	     -2.51052908	      1.18047489	      0.00000000	      2.83133341	    -10.71773200	      0.00000000	     -5.97258020	      1.66761898	     -1.22573772	      9.49531470	    -10.04582037	     39.45037776	     83.26077671	     91.27346708	      7.76141725	     -7.84820821	     27.42935757	     71.35566761	     88.20841594
      1.56666670	     -1.48654628	      0.63308880	     -5.53346772	      1.66247851	      0.87778209	     -0.03220597	     -1.73325917	     -5.51863861	      0.31939019	      0.00000000	      3.15353839	    -17.17851163	      0.00000000	     -3.19287269	     -2.51292026	      1.18081640	      0.00000000	      2.83084447	    -10.71717929	      0.00000000	     -5.97169128	      1.66693486	     -1.22497909	      9.49708653	    -10.04659439	     39.44881507	     83.26109901	     91.27318645	      7.76136323	     -7.84842580	     27.42962840	     71.35600723	     88.20835887
      1.58333330	     -1.54674247	      0.64812537	     -5.43849289	      1.66196264	      0.87801680	     -0.03265846	     -1.66114192	     -5.50903030	      0.23158124	      0.00000000	      3.18081169	    -17.19706966	      0.00000000	     -3.05915201	     -2.52422859	      1.22228980	      0.00000000	      2.76713832	    -10.64922985	      0.00000000	     -5.89956895	      1.59063691	     -1.14876182	      9.72362760	    -10.13845414	     39.26038652	     83.30902671	     91.24122650	      7.79375358	     -7.88263795	     27.45041705	     71.40315199	     88.20142204
      1.60000000	     -1.55810267	      0.66059653	     -5.49280388	      1.66155304	      0.87880907	     -0.03294315	     -1.60193436	     -5.52382730	      0.19382091	      0.00000000	      3.18882911	    -17.20312911	      0.00000000	     -3.04155531	     -2.51260710	      1.24147984	      0.00000000	      2.74214977	    -10.62310967	      0.00000000	     -5.89007875	      1.60240925	     -1.18834491	      9.68329901	    -10.15807274	     39.22657246	     83.31791091	     91.22905146	      7.82577414	     -7.88307098	     27.46562801	     71.42617660	     88.19860598
      1.61666670	     -1.55152302	      0.66301657	     -5.47274607	      1.66119962	      0.87924981	     -0.03296445	     -1.58475538	     -5.53061478	      0.19148967	      0.00000000	      3.18937838	    -17.20213902	      0.00000000	     -3.03954686	     -2.51820651	      1.23957267	      0.00000000	      2.73844989	    -10.62096578	      0.00000000	     -5.88749257	      1.60206624	     -1.18467913	      9.67882072	    -10.15752360	     39.22217968	     83.32099145	     91.22706128	      7.82506315	     -7.88769875	     27.46750316	     71.42836488	     88.19804790
      1.63333330	     -1.54518346	      0.67106001	     -5.45580034	      1.66087607	      0.87909599	     -0.03246957	     -1.57281204	     -5.53468663	      0.18814432	      0.00000000	      3.18996273	    -17.20153816	      0.00000000	     -3.03415461	     -2.52599593	      1.23890164	      0.00000000	      2.73344900	    -10.61766385	      0.00000000	     -5.88669531	      1.60194881	     -1.18146035	      9.67341322	    -10.15653842	     39.21918163	     83.32399858	     91.22528505	      7.82580459	     -7.89222667	     27.46882700	     71.43060087	     88.19750373
      1.65000000	     -1.66320742	      0.68380930	     -5.33560902	      1.66060746	      0.87878068	     -0.03161102	     -1.44218699	     -5.49944575	      0.01770105	      0.00000000	      3.22565104	    -17.21176531	      0.00000000	     -2.85608591	     -2.57558273	      1.31000761	      0.00000000	      2.51636310	    -10.43856658	      0.00000000	     -5.85082580	      1.49156552	     -1.12115326	      9.44133607	    -10.04740719	     39.16857259	     83.44282269	     91.16735208	      7.95079860	     -8.04294739	     27.50619258	     71.53638957	     88.17818637
      1.66666670	     -1.65241399	      0.69670833	     -5.32736376	      1.66046319	      0.87872589	     -0.03103133	     -1.43739205	     -5.49856780	      0.01753774	      0.00000000	      3.22556302	    -17.21024600	      0.00000000	     -2.85297574	     -2.58289564	      1.30909503	      0.00000000	      2.51603978	    -10.43817629	      0.00000000	     -5.84573793	      1.49337607	     -1.11957663	      9.43876584	    -10.04689188	     39.16719172	     83.44518514	     91.16624954	      7.94982821	     -8.04181556	     27.50897131	     71.53894236	     88.17792539
      1.68333330	     -1.64501005	      0.69466412	     -5.26671087	      1.66004493	      0.87891169	     -0.03070655	     -1.44791257	     -5.46417364	      0.00398974	      0.00000000	      3.23109650	    -17.20199931	      0.00000000	     -2.82824421	     -2.62551221	      1.30985939	      0.00000000	      2.49314156	    -10.41678478	      0.00000000	     -5.79939553	      1.46278664	     -1.05842494	      9.38913235	     -9.98449540	     39.18731753	     83.47728934	     91.15558040	      7.95575738	     -8.06558139	     27.52441239	     71.56971228	     88.17385097
      1.70000000	     -1.64535489	      0.70143170	     -5.26844402	      1.65988939	      0.87918149	     -0.03082620	     -1.44850720	     -5.46118455	      0.00320614	      0.00000000	      3.23141185	    -17.20216646	      0.00000000	     -2.82729978	     -2.62974023	      1.31019848	      0.00000000	      2.49261557	    -10.41622754	      0.00000000	     -5.79863383	      1.46243519	     -1.05770676	      9.38754820	     -9.98342326	     39.18803984	     83.47770187	     91.15541080	      7.95601720	     -8.06579309	     27.52476422	     71.57038582	     88.17378196
